<?xml version="1.0" encoding="UTF-8" standalone="no"?>
<svg width="20px" height="20px" viewBox="0 0 20 20" version="1.1" xmlns="http://www.w3.org/2000/svg" xmlns:xlink="http://www.w3.org/1999/xlink" xmlns:sketch="http://www.bohemiancoding.com/sketch/ns">
    <!-- Generator: Sketch 3.3 (11970) - http://www.bohemiancoding.com/sketch -->
    <title>polymask</title>
    <desc>Created with Sketch.</desc>
    <defs></defs>
    <g id="Page-1" stroke="none" stroke-width="1" fill="none" fill-rule="evenodd" sketch:type="MSPage">
        <g id="polymask" sketch:type="MSLayerGroup">
            <g id="Header" sketch:type="MSShapeGroup">
                <g id="HeaderMenu">
                    <g id="Notification">
                        <g id="Group">
                            <g id="Profile">
                                <g id="mask-2" fill="#FFFFFF">
                                    <path d="M8.26838394,0.7128878 L2.1145378,3.92717352 C1.00238373,4.50807542 0.314126626,5.60083189 0.314126626,6.78571428 L0.314126626,13.2142857 C0.314126626,14.3991681 1.00238373,15.4919246 2.1145378,16.0728265 L8.26838394,19.2871122 C9.34358085,19.8487106 10.6564192,19.8487106 11.7316161,19.2871122 L17.8854622,16.0728265 C18.9976162,15.4919246 19.6858734,14.3991681 19.6858734,13.2142857 L19.6858734,6.78571428 C19.6858734,5.60083189 18.9976162,4.50807542 17.8854622,3.92717352 L11.7316161,0.7128878 C10.6564192,0.151289413 9.34358085,0.151289413 8.26838394,0.7128878 L8.26838394,0.7128878 Z" id="path-1"></path>
                                </g>
                                <g id="Polygon-2" fill="#979797">
                                    <path d="M8.26838394,0.7128878 L2.1145378,3.92717352 C1.00238373,4.50807542 0.314126626,5.60083189 0.314126626,6.78571428 L0.314126626,13.2142857 C0.314126626,14.3991681 1.00238373,15.4919246 2.1145378,16.0728265 L8.26838394,19.2871122 C9.34358085,19.8487106 10.6564192,19.8487106 11.7316161,19.2871122 L17.8854622,16.0728265 C18.9976162,15.4919246 19.6858734,14.3991681 19.6858734,13.2142857 L19.6858734,6.78571428 C19.6858734,5.60083189 18.9976162,4.50807542 17.8854622,3.92717352 L11.7316161,0.7128878 C10.6564192,0.151289413 9.34358085,0.151289413 8.26838394,0.7128878 L8.26838394,0.7128878 Z" id="path-1"></path>
                                </g>
                            </g>
                        </g>
                    </g>
                </g>
            </g>
        </g>
    </g>
</svg>