<?xml version="1.0" encoding="UTF-8" standalone="no"?>
<svg width="15px" height="15px" viewBox="0 0 15 15" version="1.1" xmlns="http://www.w3.org/2000/svg" xmlns:xlink="http://www.w3.org/1999/xlink" xmlns:sketch="http://www.bohemiancoding.com/sketch/ns">
    <!-- Generator: Sketch 3.3 (11970) - http://www.bohemiancoding.com/sketch -->
    <title>ExpertPicto 2</title>
    <desc>Created with Sketch.</desc>
    <defs></defs>
    <g id="Page-1" stroke="none" stroke-width="1" fill="none" fill-rule="evenodd" sketch:type="MSPage">
        <g id="ExpertPicto-2" sketch:type="MSLayerGroup" transform="translate(1.000000, 1.000000)">
            <g id="Imported-Layers" sketch:type="MSShapeGroup">
                <path d="M13,6.46584615 C13,10.0326154 10.0901667,12.9273846 6.5,12.9273846 C2.90983333,12.9273846 0,10.0326154 0,6.46584615 C0,2.89692308 2.90983333,0.00430769231 6.5,0.00430769231 C10.0901667,0.00430769231 13,2.89692308 13,6.46584615 L13,6.46584615 Z" id="Stroke-1" stroke="#3F3F3F"></path>
                <path d="M2.77766667,5.05292308 C3.34966667,3.56246154 4.80133333,2.50492308 6.5,2.50492308 C8.151,2.50492308 9.56583333,3.50215385 10.1703333,4.92369231 M6.474,8.68646154 L7.84983333,5.656" id="Stroke-2" stroke="#3F3F3F" stroke-linecap="round" stroke-linejoin="round"></path>
                <path d="M7.358,8.68646154 C7.358,9.17107692 6.96366667,9.56523077 6.474,9.56523077 C5.9865,9.56523077 5.59,9.17107692 5.59,8.68646154 C5.59,8.19969231 5.9865,7.80553846 6.474,7.80553846 C6.96366667,7.80553846 7.358,8.19969231 7.358,8.68646154" id="Fill-3" fill="#3F3F3F"></path>
            </g>
        </g>
    </g>
</svg>