<?xml version="1.0" encoding="UTF-8" standalone="no"?>
<svg width="14px" height="13px" viewBox="0 0 14 13" version="1.1" xmlns="http://www.w3.org/2000/svg" xmlns:xlink="http://www.w3.org/1999/xlink" xmlns:sketch="http://www.bohemiancoding.com/sketch/ns">
    <!-- Generator: Sketch 3.3 (11970) - http://www.bohemiancoding.com/sketch -->
    <title>Shape</title>
    <desc>Created with Sketch.</desc>
    <defs></defs>
    <g id="Page-1" stroke="none" stroke-width="1" fill="none" fill-rule="evenodd" sketch:type="MSPage">
        <path d="M4.42055089,10.872141 C5.02989501,10.872141 5.61110135,10.7495584 6.13987611,10.5279666 L6.13987611,12.0000234 C6.13987611,12.5524059 6.59223301,13 7.15083688,13 C7.70944076,13 8.16179765,12.5524059 8.16179765,12.0000234 L8.16179765,9.25636136 C8.69887537,8.47706401 9.54270087,9.5685974 10.9500505,9.5685974 C12.6344726,9.5685974 14,8.21790657 14,6.55224212 C14,6.53459995 13.9978474,6.51741404 13.9972324,6.49992396 C13.9976936,6.48228178 14,6.46509587 14,6.4474537 C14,4.78178925 12.6344726,3.43125051 10.9500505,3.43125051 C9.54285463,3.43125051 8.69902913,4.52278391 8.16179765,3.74348655 L8.16179765,0.999976602 C8.16179765,0.44759409 7.70944076,2.66453526e-15 7.15083688,2.66453526e-15 C6.59269428,2.66453526e-15 6.13987611,0.44759409 6.13987611,0.999976602 L6.13987611,2.47203341 C5.61125511,2.25013746 5.02989501,2.12770687 4.42055089,2.12770687 C1.98286693,2.12770687 -1.33226763e-14,4.08887771 -1.33226763e-14,6.50007604 C-1.33226763e-14,8.91127438 1.98302069,10.872141 4.42055089,10.872141 L4.42055089,10.872141 Z M4.42055089,3.12753138 C5.04788473,3.12753138 5.63416509,3.2990863 6.13987611,3.59291973 L6.13987611,9.40692818 C5.63447261,9.70076161 5.04788473,9.87246862 4.42055089,9.87246862 C2.54024074,9.87231653 1.01080701,8.35950022 1.01080701,6.49992396 C1.01096077,4.64019561 2.5403945,3.12753138 4.42055089,3.12753138 L4.42055089,3.12753138 Z" id="Shape" fill="#3F3F3F" sketch:type="MSShapeGroup"></path>
    </g>
</svg>