<?xml version="1.0" encoding="UTF-8" standalone="no"?>
<svg width="12px" height="12px" viewBox="0 0 12 12" version="1.1" xmlns="http://www.w3.org/2000/svg" xmlns:xlink="http://www.w3.org/1999/xlink" xmlns:sketch="http://www.bohemiancoding.com/sketch/ns">
    <!-- Generator: Sketch 3.2.2 (9983) - http://www.bohemiancoding.com/sketch -->
    <title>Shape</title>
    <desc>Created with Sketch.</desc>
    <defs></defs>
    <g id="Dashboard" stroke="none" stroke-width="1" fill="none" fill-rule="evenodd" sketch:type="MSPage">
        <g id="DashBoard_Visit_Report" sketch:type="MSArtboardGroup" transform="translate(-466.000000, -271.000000)" fill="#D0011B">
            <g id="Reports" sketch:type="MSLayerGroup" transform="translate(447.000000, 194.000000)">
                <g id="Image5" sketch:type="MSShapeGroup">
                    <g id="ic_cancel_48px" transform="translate(19.000000, 70.000000)">
                        <path d="M6,7 C2.685,7 0,9.685 0,13 C0,16.315 2.685,19 6,19 C9.315,19 12,16.315 12,13 C12,9.685 9.315,7 6,7 L6,7 Z M9,15.151 L8.151,16 L6,13.849 L3.849,16 L3,15.151 L5.151,13 L3,10.849 L3.849,10 L6,12.151 L8.151,10 L9,10.849 L6.849,13 L9,15.151 L9,15.151 Z" id="Shape"></path>
                    </g>
                </g>
            </g>
        </g>
    </g>
</svg>