<?xml version="1.0" encoding="UTF-8" standalone="no"?>
<svg width="21px" height="22px" viewBox="0 0 21 22" version="1.1" xmlns="http://www.w3.org/2000/svg" xmlns:xlink="http://www.w3.org/1999/xlink" xmlns:sketch="http://www.bohemiancoding.com/sketch/ns">
    <!-- Generator: Sketch 3.2.2 (9983) - http://www.bohemiancoding.com/sketch -->
    <title>Facebook</title>
    <desc>Created with Sketch.</desc>
    <defs></defs>
    <g id="Review" stroke="none" stroke-width="1" fill="none" fill-rule="evenodd" sketch:type="MSPage">
        <g id="Review-3" sketch:type="MSArtboardGroup" transform="translate(-1002.000000, -5130.000000)" stroke-linecap="round" stroke="#FFFFFF" stroke-linejoin="round">
            <g id="footer" sketch:type="MSLayerGroup" transform="translate(0.000000, 4969.000000)">
                <g id="join-us" transform="translate(1002.000000, 111.000000)" sketch:type="MSShapeGroup">
                    <g id="icons-&quot;join-us&quot;" transform="translate(1.000000, 51.000000)">
                        <path d="M5.87476008,19.9710788 L1.17170287,19.9533782 C0.522372588,19.9508035 -0.00235967732,19.3763365 7.98095526e-06,18.6702409 L0.0589034806,1.27413472 C0.0609751816,0.568039106 0.589258934,-0.0025659635 1.23888517,8.67866115e-06 L18.2226899,0.0640529024 C18.8723161,0.0663057143 19.3967525,0.640772747 19.3946807,1.34719019 L19.3357853,18.7429745 C19.3334176,19.449392 18.8051338,20.0196752 18.1558036,20.0174224 L10.1862658,19.9871703 M14.646934,6.0483795 C14.646934,6.0483795 10.212606,3.61662998 10.1995839,7.7367011 C10.1865618,11.8567722 10.1605175,19.9546655 10.1605175,19.9546655 M14.6309523,10.87873 L7.05414986,10.850409" id="Facebook"></path>
                    </g>
                </g>
            </g>
        </g>
    </g>
</svg>