<?xml version="1.0" encoding="UTF-8" standalone="no"?>
<svg width="28px" height="25px" viewBox="0 0 28 25" version="1.1" xmlns="http://www.w3.org/2000/svg" xmlns:xlink="http://www.w3.org/1999/xlink" xmlns:sketch="http://www.bohemiancoding.com/sketch/ns">
    <!-- Generator: Sketch 3.2.2 (9983) - http://www.bohemiancoding.com/sketch -->
    <title>icon date</title>
    <desc>Created with Sketch.</desc>
    <defs></defs>
    <g id="Page-1" stroke="none" stroke-width="1" fill="none" fill-rule="evenodd" sketch:type="MSPage">
        <g id="HOME" sketch:type="MSArtboardGroup" transform="translate(-444.000000, -316.000000)" fill="#4163A9">
            <g id="INTRO" sketch:type="MSLayerGroup">
                <g id="SEARCH-2rows-2" transform="translate(171.000000, 293.000000)" sketch:type="MSShapeGroup">
                    <path d="M299.339145,25.9703 L296.042763,25.9703 L296.042763,24.2 C296.042763,23.7023 295.6375,23.3 295.138158,23.3 C294.638816,23.3 294.233553,23.7023 294.233553,24.2 L294.233553,25.9703 L290.615132,25.9703 L290.615132,24.2 C290.615132,23.7023 290.209868,23.3 289.710526,23.3 C289.211184,23.3 288.805921,23.7023 288.805921,24.2 L288.805921,25.9703 L285.1875,25.9703 L285.1875,24.2 C285.1875,23.7023 284.782237,23.3 284.282895,23.3 C283.783553,23.3 283.378289,23.7023 283.378289,24.2 L283.378289,25.9703 L279.759868,25.9703 L279.759868,24.2 C279.759868,23.7023 279.354605,23.3 278.855263,23.3 C278.355921,23.3 277.950658,23.7023 277.950658,24.2 L277.950658,25.9703 L274.654276,25.9703 C273.905263,25.9703 273.427632,26.7794 273.427632,27.5246 L273.427632,46.25 C273.427632,46.9943 273.905263,47.5703 274.654276,47.5703 L299.339145,47.5703 C300.088158,47.5703 300.565789,46.9943 300.565789,46.25 L300.565789,27.5246 C300.565789,26.7794 300.088158,25.9703 299.339145,25.9703 L299.339145,25.9703 Z M277.950658,27.7703 L277.950658,29.8583 C277.950658,30.356 278.355921,30.7583 278.855263,30.7583 C279.354605,30.7583 279.759868,30.356 279.759868,29.8583 L279.759868,27.7703 L283.378289,27.7703 L283.378289,29.8583 C283.378289,30.356 283.783553,30.7583 284.282895,30.7583 C284.782237,30.7583 285.1875,30.356 285.1875,29.8583 L285.1875,27.7703 L288.805921,27.7703 L288.805921,29.8583 C288.805921,30.356 289.211184,30.7583 289.710526,30.7583 C290.209868,30.7583 290.615132,30.356 290.615132,29.8583 L290.615132,27.7703 L294.233553,27.7703 L294.233553,29.8583 C294.233553,30.356 294.638816,30.7583 295.138158,30.7583 C295.6375,30.7583 296.042763,30.356 296.042763,29.8583 L296.042763,27.7703 L298.756579,27.7703 L298.756579,33.1703 L275.236842,33.1703 L275.236842,27.7703 L277.950658,27.7703 L277.950658,27.7703 Z M275.236842,34.9703 L298.756579,34.9703 L298.756579,45.7703 L275.236842,45.7703 L275.236842,34.9703 Z" id="icon-date"></path>
                </g>
            </g>
        </g>
    </g>
</svg>