<?xml version="1.0" encoding="UTF-8" standalone="no"?>
<svg width="22px" height="32px" viewBox="0 0 22 32" version="1.1" xmlns="http://www.w3.org/2000/svg" xmlns:xlink="http://www.w3.org/1999/xlink" xmlns:sketch="http://www.bohemiancoding.com/sketch/ns">
    <!-- Generator: Sketch 3.2.2 (9983) - http://www.bohemiancoding.com/sketch -->
    <title>icon lieu</title>
    <desc>Created with Sketch.</desc>
    <defs></defs>
    <g id="Page-1" stroke="none" stroke-width="1" fill="none" fill-rule="evenodd" sketch:type="MSPage">
        <g id="HOME" sketch:type="MSArtboardGroup" transform="translate(-194.000000, -312.000000)" fill="#4163A9">
            <g id="INTRO" sketch:type="MSLayerGroup">
                <g id="SEARCH-2rows-2" transform="translate(171.000000, 293.000000)" sketch:type="MSShapeGroup">
                    <g id="icon-lieu" transform="translate(22.615132, 18.800000)">
                        <path d="M21.3648379,13.39173 C21.3414151,13.39173 21.3179922,13.39011 21.2929541,13.38849 C20.8487283,13.3488 20.5200012,12.95595 20.5595777,12.51045 C20.5830005,12.23748 20.5959234,11.96046 20.5959234,11.68101 C20.5959234,6.5448 16.4290854,2.36601 11.3075658,2.36601 C6.18604617,2.36601 2.01920818,6.5448 2.01920818,11.68101 C2.01920818,11.96046 2.03132343,12.23667 2.05555392,12.50964 C2.09432272,12.95514 1.76640331,13.3488 1.32217751,13.38768 C0.882797815,13.42818 0.486225329,13.09689 0.446648849,12.6522 C0.418379934,12.33144 0.403841635,12.00825 0.403841635,11.68101 C0.403841635,5.65137 5.29517152,0.74601 11.3075658,0.74601 C17.3199601,0.74601 22.2112899,5.65137 22.2112899,11.68101 C22.2112899,12.00906 22.1967516,12.33225 22.1684827,12.65301 C22.1313293,13.07421 21.7791794,13.39173 21.3648379,13.39173" id="Fill-1"></path>
                        <path d="M11.3075658,31.65642 C11.1104911,31.65642 10.9134164,31.58433 10.7575335,31.44015 C10.3351151,31.04649 0.403841635,21.68289 0.403841635,11.68101 C0.403841635,11.23389 0.765683741,10.87101 1.21152491,10.87101 C1.65736607,10.87101 2.01920818,11.23389 2.01920818,11.68101 C2.01920818,20.97171 11.7590607,30.16116 11.8575981,30.2535 C12.1839021,30.55806 12.2024789,31.06998 11.8987899,31.39803 C11.740484,31.56975 11.5240249,31.65642 11.3075658,31.65642" id="Fill-2"></path>
                        <path d="M11.3083735,31.65642 C11.0911067,31.65642 10.8746476,31.56975 10.7163416,31.39803 C10.4126527,31.06998 10.4312294,30.55806 10.7575335,30.2535 C10.8560708,30.16116 20.5959234,20.97171 20.5959234,11.68101 C20.5959234,11.23389 20.9569578,10.87101 21.4036067,10.87101 C21.8502555,10.87101 22.2112899,11.23389 22.2112899,11.68101 C22.2112899,21.68289 12.2800164,31.04649 11.8575981,31.44015 C11.7017152,31.58433 11.5046405,31.65642 11.3083735,31.65642" id="Fill-3"></path>
                        <path d="M11.3075658,17.36883 C8.67532601,17.36883 6.53334998,15.22152 6.53334998,12.58173 C6.53334998,9.94113 8.67532601,7.79382 11.3075658,7.79382 C13.9406133,7.79382 16.0817816,9.94113 16.0817816,12.58173 C16.0817816,15.22152 13.9406133,17.36883 11.3075658,17.36883 L11.3075658,17.36883 Z M11.3075658,9.41382 C9.56620066,9.41382 8.14871652,10.83456 8.14871652,12.58173 C8.14871652,14.32809 9.56620066,15.74883 11.3075658,15.74883 C13.0489309,15.74883 14.4664151,14.32809 14.4664151,12.58173 C14.4664151,10.83456 13.0489309,9.41382 11.3075658,9.41382 L11.3075658,9.41382 Z" id="Fill-4"></path>
                    </g>
                </g>
            </g>
        </g>
    </g>
</svg>