<?xml version="1.0" encoding="UTF-8" standalone="no"?>
<svg width="23px" height="27px" viewBox="0 0 23 27" version="1.1" xmlns="http://www.w3.org/2000/svg" xmlns:xlink="http://www.w3.org/1999/xlink" xmlns:sketch="http://www.bohemiancoding.com/sketch/ns">
    <!-- Generator: Sketch 3.2.2 (9983) - http://www.bohemiancoding.com/sketch -->
    <title>icon superficie</title>
    <desc>Created with Sketch.</desc>
    <defs></defs>
    <g id="Page-1" stroke="none" stroke-width="1" fill="none" fill-rule="evenodd" sketch:type="MSPage">
        <g id="HOME" sketch:type="MSArtboardGroup" transform="translate(-781.000000, -315.000000)" fill="#4163A9">
            <g id="INTRO" sketch:type="MSLayerGroup">
                <g id="SEARCH-2rows-2" transform="translate(171.000000, 293.000000)" sketch:type="MSShapeGroup">
                    <g id="icon-superficie" transform="translate(610.131579, 21.500000)">
                        <path d="M8.27875352,26.9828182 L0.957912359,26.9828182 C0.512071194,26.9828182 0.150229088,26.6170909 0.150229088,26.1646364 L0.150229088,10.4391818 C0.150229088,10.2051818 0.248766447,9.98263636 0.420802984,9.82718182 L10.5176516,0.736363636 C10.8504171,0.436909091 11.3608729,0.467181818 11.6581003,0.804272727 C11.9537124,1.14218182 11.9238281,1.65927273 11.5910626,1.95954545 L1.76559563,10.8065455 L1.76559563,25.3464545 L7.47107025,25.3464545 L7.47107025,17.0312727 C7.47107025,16.5788182 7.83291236,16.2130909 8.27875352,16.2130909 L11.0539532,16.2130909 C11.4997944,16.2130909 11.8616365,16.5788182 11.8616365,17.0312727 C11.8616365,17.4837273 11.4997944,17.8494545 11.0539532,17.8494545 L9.0864368,17.8494545 L9.0864368,26.1646364 C9.0864368,26.6170909 8.72459469,26.9828182 8.27875352,26.9828182" id="Fill-1"></path>
                        <path d="M21.1499941,26.9828182 L13.829153,26.9828182 C13.3825041,26.9828182 13.0214697,26.6170909 13.0214697,26.1646364 L13.0214697,17.8494545 L11.0539532,17.8494545 C10.6081121,17.8494545 10.24627,17.4837273 10.24627,17.0312727 C10.24627,16.5788182 10.6081121,16.2130909 11.0539532,16.2130909 L13.829153,16.2130909 C14.2749941,16.2130909 14.6368362,16.5788182 14.6368362,17.0312727 L14.6368362,25.3464545 L20.3423109,25.3464545 L20.3423109,10.8065455 L10.5176516,1.95954545 C10.1840784,1.65927273 10.1541941,1.14218182 10.4498062,0.804272727 C10.7470336,0.467181818 11.2566817,0.435272727 11.5910626,0.736363636 L21.6862958,9.82718182 C21.85914,9.98263636 21.9576774,10.2051818 21.9576774,10.4391818 L21.9576774,26.1646364 C21.9576774,26.6170909 21.596643,26.9828182 21.1499941,26.9828182" id="Fill-2"></path>
                    </g>
                </g>
            </g>
        </g>
    </g>
</svg>