<?xml version="1.0" encoding="UTF-8" standalone="no"?>
<svg width="20px" height="17px" viewBox="0 0 20 17" version="1.1" xmlns="http://www.w3.org/2000/svg" xmlns:xlink="http://www.w3.org/1999/xlink" xmlns:sketch="http://www.bohemiancoding.com/sketch/ns">
    <!-- Generator: Sketch 3.2.2 (9983) - http://www.bohemiancoding.com/sketch -->
    <title>ICON download</title>
    <desc>Created with Sketch.</desc>
    <defs></defs>
    <g id="Page-1" stroke="none" stroke-width="1" fill="none" fill-rule="evenodd" sketch:type="MSPage">
        <g id="HOME" sketch:type="MSArtboardGroup" transform="translate(-430.000000, -1758.000000)" fill="#FFFFFF">
            <g id="TIPS" sketch:type="MSLayerGroup" transform="translate(180.000000, 1126.000000)">
                <g id="DOWNLOAD-THE-KIT-+-ICON-download" transform="translate(52.000000, 619.000000)" sketch:type="MSShapeGroup">
                    <g id="ICON-download" transform="translate(198.000000, 13.000000)">
                        <path d="M19.2728571,16.6947391 L1.41571429,16.6947391 C1.02142857,16.6947391 0.701428571,16.3643478 0.701428571,15.9556087 L0.701428571,10.9516957 C0.701428571,10.5436957 1.02142857,10.2125652 1.41571429,10.2125652 C1.81071429,10.2125652 2.13,10.5436957 2.13,10.9516957 L2.13,15.2164783 L18.5585714,15.2164783 L18.5585714,11.0795652 C18.5585714,10.6715652 18.8785714,10.3404348 19.2728571,10.3404348 C19.6678571,10.3404348 19.9871429,10.6715652 19.9871429,11.0795652 L19.9871429,15.9556087 C19.9871429,16.3643478 19.6678571,16.6947391 19.2728571,16.6947391" id="Fill-1"></path>
                        <path d="M10.3442857,11.6908261 C10.1842857,11.6908261 10.025,11.6361304 9.89357143,11.5245217 L6.53928571,8.69586957 C6.23357143,8.43865217 6.18785714,7.973 6.43714286,7.65591304 C6.68571429,7.33956522 7.13714286,7.293 7.44214286,7.55021739 L10.3442857,9.99821739 L13.2471429,7.55021739 C13.5535714,7.29373913 14.0028571,7.33956522 14.2528571,7.65591304 C14.5014286,7.973 14.4557143,8.43865217 14.15,8.6966087 L10.7957143,11.5252609 C10.6642857,11.6353913 10.505,11.6908261 10.3442857,11.6908261" id="Fill-2"></path>
                        <path d="M10.3442857,11.6908261 C9.95,11.6908261 9.63,11.3604348 9.63,10.9516957 L9.63,1.32747826 C9.63,0.919478261 9.95,0.588347826 10.3442857,0.588347826 C10.7392857,0.588347826 11.0585714,0.919478261 11.0585714,1.32747826 L11.0585714,10.9516957 C11.0585714,11.3604348 10.7392857,11.6908261 10.3442857,11.6908261" id="Fill-3"></path>
                    </g>
                </g>
            </g>
        </g>
    </g>
</svg>