<?xml version="1.0" encoding="UTF-8" standalone="no"?>
<svg width="20px" height="19px" viewBox="0 0 20 19" version="1.1" xmlns="http://www.w3.org/2000/svg" xmlns:xlink="http://www.w3.org/1999/xlink" xmlns:sketch="http://www.bohemiancoding.com/sketch/ns">
    <!-- Generator: Sketch 3.2.2 (9983) - http://www.bohemiancoding.com/sketch -->
    <title>Instagram 2</title>
    <desc>Created with Sketch.</desc>
    <defs></defs>
    <g id="Header" stroke="none" stroke-width="1" fill="none" fill-rule="evenodd" sketch:type="MSPage">
        <g id="Header-Tooltip" sketch:type="MSArtboardGroup" transform="translate(-1006.000000, -1123.000000)" stroke-linecap="round" stroke="#FFFFFF" stroke-linejoin="round">
            <g id="footer" sketch:type="MSLayerGroup" transform="translate(3.000000, 888.000000)">
                <g id="join-us" transform="translate(1002.000000, 112.000000)" sketch:type="MSShapeGroup">
                    <g id="icons-&quot;join-us&quot;" transform="translate(1.000000, 51.000000)">
                        <path d="M0.523527203,82.0400835 L0.500001102,73.6171759 C0.499129743,73.0134612 1.01497467,72.5233902 1.65222905,72.5225647 L18.3204683,72.500001 C18.9580132,72.4991755 19.4753104,72.9878707 19.4761817,73.5918606 L19.4999989,89.3828241 C19.5008703,89.9865388 18.9847349,90.4766098 18.3474805,90.4777105 L1.6792412,90.499999 C1.04198682,90.5008245 0.524399173,90.0121293 0.523527814,89.4084146 L0.523527203,85.0987216 M14.1587877,79.8733095 C15.307573,82.2308609 14.4250919,85.1350183 12.1915903,86.3476077 C9.95836732,87.5601971 7.2067424,86.6289967 6.0579571,84.2714453 C4.90945036,81.913894 5.79165284,79.0094425 8.02515443,77.7968531 C10.258656,76.5842637 13.0100024,77.5160522 14.1587877,79.8733095 L14.1587877,79.8733095 M17.0481928,76.4887374 C17.0481928,76.8102636 16.7988689,77.073141 16.4942652,77.073141 L14.7828433,77.073141 C14.4782395,77.073141 14.2289157,76.8102636 14.2289157,76.4887374 L14.2289157,74.6819388 C14.2289157,74.3604126 14.4782395,74.0972374 14.7828433,74.0972374 L16.4942652,74.0972374 C16.7988689,74.0972374 17.0481928,74.3604126 17.0481928,74.6819388 L17.0481928,76.4887374 M1.03730913,82.0722892 L5.55421687,82.0722892 L1.03730913,82.0722892 Z M18.9862392,82.0722892 L14.6626506,82.0722892 L18.7831325,82.0722892 M11.5378788,84.6848445 C10.1331952,85.4587771 8.40286735,84.8644125 7.68054818,83.3599009 C7.31938859,82.6077849 7.27734471,81.7684022 7.50140466,81.020202" id="Instagram-2"></path>
                    </g>
                </g>
            </g>
        </g>
    </g>
</svg>