<?xml version="1.0" encoding="utf-8"?>
<!-- Generator: Adobe Illustrator 18.1.1, SVG Export Plug-In . SVG Version: 6.00 Build 0)  -->
<svg version="1.1" xmlns="http://www.w3.org/2000/svg" xmlns:xlink="http://www.w3.org/1999/xlink" x="0px" y="0px"
	 viewBox="0 0 610.4 161.1" enable-background="new 0 0 610.4 161.1" xml:space="preserve">
<g id="Calque_2">
</g>
<g id="Calque_1">
	<g>
		<path fill="#FFFFFF" d="M50,86.7H21.4V123c0,2.3-0.7,2.5-2.5,2.5H7.7c-1.7,0-2.6-0.2-2.6-2.5V43.1c0-1.9,0.7-2.4,2.6-2.4h11.2
			c1.9,0,2.5,0.5,2.5,2.4v33.1H50V43.3c0-1.8,0.1-2.6,2.4-2.6h11.3c2,0,2.6,0.2,2.6,2.4v80c0,2.3-1,2.4-2.5,2.4H52.5
			c-2,0-2.5-0.5-2.5-2.6V86.7z"/>
		<path fill="#FFFFFF" d="M142.4,100.7c-0.1,3.7-0.1,8.5-2.5,13.3c-1.1,2.3-6.5,13.4-26.3,13.4c-11.2,0-22.1-3.5-26.8-13.4
			c-2-4.3-2.5-9.5-2.5-14.3V43.1c0-2,0.6-2.3,2.3-2.3h11.8c1.9,0,2.5,0.1,2.5,2.3v54.8c0.1,5.2,0.5,17,14.5,17
			c13.9,0,14-12.2,14-15.8V43.3c0-2.2,0.5-2.5,2.4-2.5h8c1.8,0,2.5,0.2,2.5,2.3V100.7z"/>
		<path fill="#FFFFFF" d="M160.2,45.6c0-2.5,0.5-3.4,2.4-4.1c2.9-1,12.2-1.7,19.2-1.7c8.9,0,17.6,0.8,23.9,4.7
			c6.4,3.8,9.1,9.7,9.1,16.1c0,10.9-8.3,16.3-12.8,18.6c-1,0.4-1.8,0.7-2.8,1.1c1,0.2,1.8,0.4,2.6,0.6c12.4,3.2,17.5,12.5,17.5,22
			c0,10-5.8,16.6-13.6,20c-5.5,2.3-12.6,3.5-24,3.5c-9,0-16.9-1-19-1.6c-2.2-0.6-2.6-1.3-2.6-4.4V45.6z M176.2,77.1
			c3.1,0.1,5.5,0.1,8.4-0.1c13.2-1.4,14.2-11.2,14.2-14c0-13.8-13.3-13.8-16.1-13.8c-2.4,0-3.8,0.1-6.5,0.5V77.1z M176.2,116
			c1.8,0.2,4.6,0.5,7.8,0.5c11,0,18.7-4.3,18.7-14.8c0-16.6-16.6-16.6-21.5-16.6c-2.2,0-3.4,0.1-5,0.2V116z"/>
		<path fill="#FFFFFF" d="M249,122.9c0,2.3-1.1,2.6-2.6,2.6h-11.2c-1.7-0.1-2.6-0.5-2.6-2.6V43.3c0.1-1.7,0.4-2.5,2.5-2.5h11.4
			c1.8,0,2.5,0.4,2.5,2.5V122.9z"/>
		<path fill="#FFFFFF" d="M338.3,146.5c3,0.7,4.8,1.2,4.8,3.8c0,1.3-0.8,3.5-4.2,3.5c-2.4,0-33.8-3.6-43.7-26.8
			c-23.8-3.8-32.8-23.9-32.8-43.3c0-29.8,17.5-44.9,38.4-44.9c22.7,0,38,18,38,43.9c0,14.3-5.2,35-26.6,43.1
			C316.2,139.4,331.1,144.6,338.3,146.5z M316.2,58.1c-5.4-8.4-12.7-9.1-15.5-9.1c-5.8,0-12,3.1-16.1,9.5
			c-4.2,6.7-5.3,16.3-5.3,24.4c0,7.4,1,17.4,5.3,24.7c6,10,14.4,10,16,10c5.9,0,12.4-3.1,16.7-10.7c4.1-7.3,4.8-17.4,4.7-24.5
			C322,76.5,321.3,65.9,316.2,58.1z"/>
		<path fill="#FFFFFF" d="M409.8,100.7c-0.1,3.7-0.1,8.5-2.5,13.3c-1.1,2.3-6.5,13.4-26.3,13.4c-11.2,0-22.1-3.5-26.8-13.4
			c-2-4.3-2.5-9.5-2.5-14.3V43.1c0-2,0.6-2.3,2.3-2.3h11.8c1.9,0,2.5,0.1,2.5,2.3v54.8c0.1,5.2,0.5,17,14.5,17
			c13.9,0,14-12.2,14-15.8V43.3c0-2.2,0.5-2.5,2.4-2.5h8c1.8,0,2.5,0.2,2.5,2.3V100.7z"/>
		<path fill="#FFFFFF" d="M444,122.9c0,2.3-1.1,2.6-2.6,2.6h-11.2c-1.7-0.1-2.6-0.5-2.6-2.6V43.3c0.1-1.7,0.4-2.5,2.5-2.5h11.4
			c1.8,0,2.5,0.4,2.5,2.5V122.9z"/>
		<path fill="#FFFFFF" d="M488.9,51.5v71.2c0,2-0.5,2.9-2.5,2.9h-10.9c-2.2-0.1-2.9-0.5-2.9-2.9V51.5h-18.1c-2.2,0-2.6-0.7-2.6-2.6
			v-5.6c0-2.2,0.8-2.5,2.6-2.5h52.7c1.7,0,2.6,0.2,2.6,2.3v5.9c0,1.9-0.5,2.6-2.6,2.6H488.9z"/>
		<path fill="#FFFFFF" d="M594.1,6.1c-7.8,0.1-14-0.9-17.7,4.1c-11.3,15-17,32.6-24.8,49.4l-5.1-15.5c-1.1-2.9-2-3.1-4.4-3.1h-20.8
			c-1.6,0-3,0.4-3,2.2c0,0.6,0,1.3,0.5,2.4L537,88.3v34.3c0,2.8,1.6,3.4,3.8,3.4h19.7c1.3,0,2.5-0.3,2.5-2.9v-34l5-11.2
			c9.6-18.7,17.6-39,30.2-56.1C608.3,8,605.3,5.9,594.1,6.1z"/>
	</g>
</g>
</svg>
