<?xml version="1.0" encoding="UTF-8" standalone="no"?>
<svg width="60px" height="60px" viewBox="0 0 60 60" version="1.1" xmlns="http://www.w3.org/2000/svg" xmlns:xlink="http://www.w3.org/1999/xlink" xmlns:sketch="http://www.bohemiancoding.com/sketch/ns">
    <!-- Generator: Sketch 3.3 (11970) - http://www.bohemiancoding.com/sketch -->
    <title>polymask</title>
    <desc>Created with Sketch.</desc>
    <defs></defs>
    <g id="Page-1" stroke="none" stroke-width="1" fill="none" fill-rule="evenodd" sketch:type="MSPage">
        <g id="polymask" sketch:type="MSLayerGroup">
            <g id="Header" sketch:type="MSShapeGroup">
                <g id="HeaderMenu">
                    <g id="Notification">
                        <g id="Group">
                            <g id="Profile">
                                <g id="mask-2" fill="#FFFFFF">
                                    <path d="M24.8051518,2.1386634 L6.3436134,11.7815205 C3.0071512,13.5242262 0.942379878,16.8024957 0.942379878,20.3571428 L0.942379878,39.6428572 C0.942379878,43.1975043 3.0071512,46.4757737 6.3436134,48.2184795 L24.8051518,57.8613367 C28.0307425,59.5461318 31.9692575,59.5461318 35.1948482,57.8613367 L53.6563865,48.2184795 C56.9928487,46.4757737 59.0576202,43.1975043 59.0576202,39.6428572 L59.0576202,20.3571428 C59.0576202,16.8024957 56.9928487,13.5242262 53.6563865,11.7815205 L35.1948482,2.1386634 C31.9692575,0.453868238 28.0307425,0.453868238 24.8051518,2.1386634 L24.8051518,2.1386634 Z" id="path-1"></path>
                                </g>
                                <g id="Polygon-2" fill="#979797">
                                    <path d="M24.8051518,2.1386634 L6.3436134,11.7815205 C3.0071512,13.5242262 0.942379878,16.8024957 0.942379878,20.3571428 L0.942379878,39.6428572 C0.942379878,43.1975043 3.0071512,46.4757737 6.3436134,48.2184795 L24.8051518,57.8613367 C28.0307425,59.5461318 31.9692575,59.5461318 35.1948482,57.8613367 L53.6563865,48.2184795 C56.9928487,46.4757737 59.0576202,43.1975043 59.0576202,39.6428572 L59.0576202,20.3571428 C59.0576202,16.8024957 56.9928487,13.5242262 53.6563865,11.7815205 L35.1948482,2.1386634 C31.9692575,0.453868238 28.0307425,0.453868238 24.8051518,2.1386634 L24.8051518,2.1386634 Z" id="path-1"></path>
                                </g>
                            </g>
                        </g>
                    </g>
                </g>
            </g>
        </g>
    </g>
</svg>