<?xml version="1.0" encoding="UTF-8" standalone="no"?>
<svg width="21px" height="20px" viewBox="0 0 21 20" version="1.1" xmlns="http://www.w3.org/2000/svg" xmlns:xlink="http://www.w3.org/1999/xlink" xmlns:sketch="http://www.bohemiancoding.com/sketch/ns">
    <!-- Generator: Sketch 3.2.2 (9983) - http://www.bohemiancoding.com/sketch -->
    <title>Twitter 2</title>
    <desc>Created with Sketch.</desc>
    <defs></defs>
    <g id="Header" stroke="none" stroke-width="1" fill="none" fill-rule="evenodd" sketch:type="MSPage">
        <g id="Header-Tooltip" sketch:type="MSArtboardGroup" transform="translate(-1006.000000, -1087.000000)" stroke-linecap="round" stroke="#FFFFFF" stroke-linejoin="round">
            <g id="footer" sketch:type="MSLayerGroup" transform="translate(3.000000, 888.000000)">
                <g id="join-us" transform="translate(1002.000000, 112.000000)" sketch:type="MSShapeGroup">
                    <g id="icons-&quot;join-us&quot;" transform="translate(1.000000, 51.000000)">
                        <path d="M4.64320592,52.5530494 C2.23925863,53.6659526 0.319989334,52.9977013 0,52.9526311 C1.81327289,54.2456284 3.97320089,55 6.28579047,55 C13.8395387,55 17.9667344,48.0769231 17.9667344,42.0700271 C17.9667344,41.8786635 17.9587347,41.6784336 17.9520683,41.4863312 C18.7533749,40.8420491 19.4466851,40.0440851 20,39.1360315 C19.2660245,39.4973319 18.4733842,39.7411543 17.6467451,39.8453329 C18.4940502,39.2830638 19.1400287,38.3971759 19.4466851,37.332485 C18.6533782,37.8570725 17.7734076,38.2338888 16.8401053,38.4407684 C16.0934636,37.5541417 15.0268324,37 13.8462051,37 C11.5809473,37 9.74767508,39.0399803 9.74767508,41.5439619 C9.74767508,41.8986126 9.7810073,42.2466136 9.84633846,42.5783597 C6.44111863,42.3936458 3.41455285,40.5841885 1.39395353,37.8349068 C1.04063198,38.5072654 0.840638645,39.2830638 0.840638645,40.1187095 C0.840638645,41.6924719 1.56061465,43.0815204 2.65991134,43.9009113 C1.98660045,43.871357 1.36062131,43.671866 0.807306423,43.3319924 L0.800639979,43.3911009 C0.800639979,45.5862409 2.22059265,47.4252524 4.09319689,47.8390116 C3.75320823,47.9439291 3.38655378,48.0030375 3.01256625,48.0030375 C2.74724176,48.0030375 2.49325022,47.9734833 2.23925869,47.9217634 C2.54281447,48.9595717 3.20143457,49.848268 4.0313934,50.4156124 C4.64318072,50.8338189 5.34806668,51.0774155 6.07246425,51.0774156" id="Twitter-2"></path>
                    </g>
                </g>
            </g>
        </g>
    </g>
</svg>